<svg xmlns="http://www.w3.org/2000/svg" viewBox="0 0 1333.33 1300" shape-rendering="geometricPrecision" text-rendering="geometricPrecision" image-rendering="optimizeQuality" fill-rule="evenodd" clip-rule="evenodd"><defs><style>.fil1{fill:#ff2bc2;fill-rule:nonzero}</style></defs><g id="Layer_x0020_1"><g id="adobe-experience-design-1.svg"><path fill="#2e001e" fill-rule="nonzero" d="M55.56 55.56h1222.22v1188.88H55.56z"/><path class="fil1" d="M0 0v1300h1333.33V0H0zm55.56 55.56h1222.22v1188.89H55.56V55.56z"/><path class="fil1" d="M968.33 546.11c-8.33-3.89-18.89-5.56-32.22-5.56-70 0-116.67 53.89-116.67 143.33 0 102.22 47.78 143.33 110 143.33 13.33 0 27.78-1.67 38.33-6.11v-275h.56zM719.44 688.33c0-129.44 83.33-230.56 220-230.56 11.66 0 17.78 0 28.89 1.11V314.44c0-3.33 2.78-5.56 5.56-5.56h89.45c4.44 0 5.56 1.67 5.56 4.44V821.1c0 15 0 33.89 2.78 54.44 0 3.89 0 4.44-3.33 6.11-46.67 22.22-95.56 32.22-142.22 32.22-120.56 0-206.67-74.44-206.67-225.56zm-189.44-90L685.56 900c2.78 4.44 1.11 8.89-3.33 8.89h-96.67c-6.11 0-8.89-1.67-11.67-7.22-35.56-73.33-71.67-149.44-108.89-228.33h-1.11c-33.33 74.44-70 155.56-105.56 228.89-2.78 4.44-5.56 6.11-10 6.11h-92.22c-5.56 0-6.11-4.44-3.33-7.78L405 607.78 257.78 316.67c-3.33-4.44 0-8.33 3.89-8.33h95.56c5.56 0 8.33 1.11 10 6.11 35 73.89 70.56 146.67 103.89 221.11h1.11c32.22-73.33 67.78-147.22 101.67-220 2.78-4.44 4.44-7.22 10-7.22h89.44c4.44 0 6.11 3.33 3.33 8.33L530 598.34z"/></g></g></svg>